<svg xmlns="http://www.w3.org/2000/svg" fill="currentColor" viewBox="0 0 254 30" class="styles_logoText__lrfXj"><path d="M11.04 23.987H.17V6.19h10.655c1.996 0 3.372.68 4.235 1.554.755.763 1.187 1.716 1.187 2.806 0 1.635-.971 3.107-2.239 3.625 2.05.49 3.21 2.317 3.21 4.496 0 1.308-.431 2.644-1.618 3.789-.864.818-2.024 1.526-4.56 1.526m.109-7.984H3.19v5.26h7.958c.836 0 1.645-.272 2.185-.818a2.62 2.62 0 0 0 .728-1.798c0-.653-.27-1.227-.701-1.69a3.04 3.04 0 0 0-2.212-.954M10.5 8.917h-7.31v4.632h7.31c.729 0 1.376-.164 1.862-.654a2.55 2.55 0 0 0 .728-1.77c0-.6-.243-1.145-.62-1.526-.486-.49-1.133-.68-1.97-.68zM27.937 23.987h-3.021V6.19h9.711c2.347 0 3.965.654 5.098 1.88a5.2 5.2 0 0 1 1.403 3.57c0 2.4-1.565 4.225-3.884 5.097l4.208 7.249h-3.48l-3.777-6.84h-6.258zm6.69-15.07h-6.69v5.504h7.23c1.591 0 2.94-1.253 2.94-2.78 0-.68-.27-1.28-.728-1.77-.837-.873-1.808-.954-2.752-.954M46.34 23.987 54.513 6.19h2.752l8.173 17.796H62.12l-2.13-4.796H51.6l-2.104 4.796zm9.387-14.143-3.048 6.894h6.231L55.89 9.844zM80.27 23.987h-8.444V6.19h8.443c3.183 0 4.964.9 6.474 2.372 1.565 1.634 2.401 3.924 2.401 6.513s-.917 5.097-2.59 6.731c-1.51 1.363-3.102 2.181-6.285 2.181zm-5.423-2.726h5.288c2.238 0 2.994-.517 4.046-1.39 1.133-1.144 1.807-2.888 1.807-4.795s-.593-3.516-1.7-4.66c-.998-.926-1.942-1.498-4.153-1.498h-5.288v12.345zM107.374 6.191h3.561l-7.229 9.593v8.202h-3.022v-8.202L93.455 6.19h3.83l5.045 6.868zM128.557 6.191h3.021v15.07h10.817v2.726h-13.838zM158.511 13.333v2.725h-6.771v5.205h11.923v2.725h-14.944V6.191h14.296v2.726H151.74v4.414h6.771zM186.542 8.862l-2.104 1.907c-1.484-1.499-3.993-2.399-6.07-2.399-3.803 0-6.474 3.052-6.474 6.732 0 3.432 2.32 6.704 6.771 6.704 1.834 0 3.992-.545 5.179-1.445v-3.57h-5.53v-2.725h8.282v7.794c-2.212 1.635-5.341 2.67-8.12 2.67-5.584 0-9.738-4.223-9.738-9.456s4.208-9.427 9.603-9.427c2.806 0 5.8 1.145 8.201 3.215M194.707 6.191h3.021v15.07h10.817v2.726h-13.838zM224.661 13.333v2.725h-6.771v5.205h11.923v2.725h-14.944V6.191h14.297v2.726H217.89v4.414h6.771zM239.845 23.987h-3.021V6.19h9.71c2.346 0 3.965.654 5.098 1.88a5.2 5.2 0 0 1 1.403 3.57c0 2.4-1.565 4.225-3.885 5.097l4.208 7.249h-3.48l-3.776-6.84h-6.257zm6.689-15.07h-6.689v5.504h7.228c1.592 0 2.94-1.253 2.94-2.78 0-.68-.269-1.28-.728-1.77-.836-.873-1.807-.954-2.751-.954"></path></svg>