<svg xmlns="http://www.w3.org/2000/svg" fill="currentColor" viewBox="0 0 41 60" class="styles_logoMonogram__v2sIF"><path d="M17.884 56.818v3.106c-2.286 0-4.505-.471-6.594-1.402a16.9 16.9 0 0 1-5.384-3.82 17.9 17.9 0 0 1-3.629-5.67 18.5 18.5 0 0 1-1.332-6.941c0-2.407.448-4.743 1.332-6.942A18 18 0 0 1 3.913 32q.126.138.255.273.931.982 1.968 1.813c-1.459 2.363-2.24 5.12-2.24 8.004 0 3.934 1.454 7.632 4.096 10.414 1.931 2.033 4.327 3.398 6.936 3.985V38.02q1.455.235 2.95.236v18.562zM31.218 33.483q-.747.43-1.535.783a16.2 16.2 0 0 1-3.643 1.133V53.83c-.951.263-1.94.399-2.95.399V35.668h-.001V32.56c1.91 0 3.761-.4 5.468-1.163a11.6 11.6 0 0 1 2.661 2.085M26.04 59.656v.003h-.018zM17.884 24.257v3.106c-1.91 0-3.762.4-5.469 1.164a11.6 11.6 0 0 1-2.66-2.086q.745-.43 1.535-.782a16.2 16.2 0 0 1 3.638-1.132V6.096c.95-.264 1.94-.4 2.95-.401v18.562zM40.028 17.833a18.5 18.5 0 0 1-1.332 6.943 18 18 0 0 1-1.637 3.147l-.254-.273a20 20 0 0 0-1.968-1.813c1.458-2.362 2.24-5.12 2.24-8.004 0-3.933-1.455-7.632-4.097-10.413-1.932-2.034-4.33-3.4-6.94-3.987v18.47a18.5 18.5 0 0 0-2.95-.234V3.106h-.001V0c2.286 0 4.504.472 6.594 1.402a16.9 16.9 0 0 1 5.383 3.821 17.9 17.9 0 0 1 3.63 5.669 18.5 18.5 0 0 1 1.332 6.941"></path><path d="M40.028 42.09c0 2.407-.449 4.743-1.332 6.943a17.9 17.9 0 0 1-3.63 5.668 16.9 16.9 0 0 1-5.383 3.821 16.2 16.2 0 0 1-3.66 1.136q-1.445.266-2.934.266v-3.106c1.004 0 1.992-.111 2.951-.327 2.61-.587 5.008-1.953 6.94-3.987 2.642-2.781 4.097-6.48 4.097-10.413 0-3.934-1.33-7.308-3.756-10.043q-.167-.19-.34-.371a14.4 14.4 0 0 0-1.95-1.715 13.4 13.4 0 0 0-7.942-2.599v-3.106q1.5 0 2.951.268c1.248.231 2.466.61 3.643 1.134 1.303.58 2.52 1.323 3.638 2.217a17 17 0 0 1 2.186 2.086 17.9 17.9 0 0 1 3.189 5.186 18.5 18.5 0 0 1 1.332 6.943M7.992 7.42C5.35 10.2 3.895 13.9 3.895 17.833c0 3.934 1.33 7.308 3.757 10.043q.166.19.34.371a14.3 14.3 0 0 0 1.95 1.715 13.4 13.4 0 0 0 7.942 2.599v3.106h-.006q-1.498 0-2.95-.27a16.2 16.2 0 0 1-3.638-1.132 16.7 16.7 0 0 1-3.638-2.217 17 17 0 0 1-2.187-2.086 17.9 17.9 0 0 1-3.188-5.186 18.5 18.5 0 0 1-1.332-6.943c0-2.406.448-4.742 1.332-6.941a17.9 17.9 0 0 1 3.63-5.669 16.9 16.9 0 0 1 5.383-3.821A16.1 16.1 0 0 1 17.884 0v3.106h-.006a13.4 13.4 0 0 0-2.95.328c-2.609.588-5.005 1.953-6.936 3.986"></path></svg>